<svg xmlns="http://www.w3.org/2000/svg" viewBox="0 0 64 64" role="img" aria-label="JP portfolio favicon">
  <defs>
    <linearGradient id="g" x1="0" y1="0" x2="1" y2="1">
      <stop offset="0%" stop-color="#14b8a6"/>
      <stop offset="100%" stop-color="#06b6d4"/>
    </linearGradient>
  </defs>
  <rect x="4" y="4" width="56" height="56" rx="14" fill="#0f172a"/>
  <rect x="8" y="8" width="48" height="48" rx="11" fill="url(#g)" opacity="0.15"/>
  <path d="M16 20h30v4H28v20c0 6-4 10-10 10h-2v-4h2c3 0 6-2 6-6V24h-8z" fill="url(#g)"/>
  <path d="M36 20h7c5 0 9 4 9 9s-4 9-9 9h-3v16h-4zm4 4v10h3c3 0 5-2 5-5s-2-5-5-5z" fill="#e2e8f0"/>
</svg>
